<?xml version="1.0" encoding="UTF-8" standalone="no"?>
<!-- Generator: Adobe Illustrator 15.1.0, SVG Export Plug-In  -->

<svg
   xmlns:dc="http://purl.org/dc/elements/1.1/"
   xmlns:cc="http://creativecommons.org/ns#"
   xmlns:rdf="http://www.w3.org/1999/02/22-rdf-syntax-ns#"
   xmlns:svg="http://www.w3.org/2000/svg"
   xmlns="http://www.w3.org/2000/svg"
   xmlns:sodipodi="http://sodipodi.sourceforge.net/DTD/sodipodi-0.dtd"
   xmlns:inkscape="http://www.inkscape.org/namespaces/inkscape"
   version="1.1"
   x="0px"
   y="0px"
   width="12px"
   height="12px"
   viewBox="0 0 12 12"
   style="overflow:visible;enable-background:new 0 0 12 12;"
   xml:space="preserve"
   preserveAspectRatio="xMinYMid meet"
   id="svg3019"
   inkscape:version="0.48.5 r10040"
   sodipodi:docname="switch_plus.svg"><metadata
   id="metadata3027"><rdf:RDF><cc:Work
       rdf:about=""><dc:format>image/svg+xml</dc:format><dc:type
         rdf:resource="http://purl.org/dc/dcmitype/StillImage" /><dc:title></dc:title></cc:Work></rdf:RDF></metadata><sodipodi:namedview
   pagecolor="#ffffff"
   bordercolor="#666666"
   borderopacity="1"
   objecttolerance="10"
   gridtolerance="10"
   guidetolerance="10"
   inkscape:pageopacity="0"
   inkscape:pageshadow="2"
   inkscape:window-width="1920"
   inkscape:window-height="1018"
   id="namedview3025"
   showgrid="false"
   inkscape:zoom="19.666667"
   inkscape:cx="6"
   inkscape:cy="6"
   inkscape:window-x="-8"
   inkscape:window-y="-8"
   inkscape:window-maximized="1"
   inkscape:current-layer="svg3019" />
<defs
   id="defs3021">
</defs>
<path
   style="fill:#999999;"
   d="M11,0H1C0.5,0,0,0.5,0,1v10c0,0.5,0.5,1,1,1h10c0.5,0,1-0.5,1-1V1C12,0.5,11.5,0,11,0z M11,10  c0,0.5-0.5,1-1,1H2c-0.5,0-1-0.5-1-1V4c0-0.5,0.5-1,1-1h8c0.5,0,1,0.5,1,1V10z M9,6.5v1C9,7.8,8.8,8,8.5,8H7v1.5  C7,9.8,6.8,10,6.5,10h-1C5.2,10,5,9.8,5,9.5V8H3.5C3.2,8,3,7.8,3,7.5v-1C3,6.2,3.2,6,3.5,6H5V4.5C5,4.2,5.2,4,5.5,4h1  C6.8,4,7,4.2,7,4.5V6h1.5C8.8,6,9,6.2,9,6.5z"
   id="path3023" />
<path
   style="fill:#ffffff"
   d="M 0.62036354,11.874323 C 0.35702671,11.744541 0.11394691,11.424287 0.05189192,11.12537 0.01494558,10.947401 0.00203619,9.2550859 0.0115055,5.8310456 0.02683566,0.28776173 0.00342403,0.6816299 0.33744222,0.34761171 0.67254295,0.01251099 0.25364319,0.03559322 6,0.03559322 c 5.746357,0 5.327457,-0.02308223 5.662558,0.31201849 0.334018,0.33401819 0.310606,-0.05985 0.325937,5.48343389 0.0095,3.4240403 -0.0034,5.1163554 -0.04039,5.2943244 -0.0354,0.170515 -0.114894,0.33237 -0.228341,0.464907 -0.339818,0.397 0.09327,0.369182 -5.7274516,0.367887 -4.7011562,-0.001 -5.22039623,-0.0091 -5.37195186,-0.08384 l 0,0 z m 9.63517746,-0.90659 c 0.313748,-0.09317 0.643498,-0.425228 0.725799,-0.730871 0.03809,-0.141437 0.05108,-1.193514 0.04134,-3.3478288 -0.01559,-3.4491682 0.0011,-3.264908 -0.32622,-3.5922689 C 10.363663,2.9639712 10.676358,2.9847458 6,2.9847458 c -4.6763581,0 -4.3636631,-0.020775 -4.6964561,0.3120185 -0.32736098,0.3273609 -0.31062795,0.1431007 -0.32622037,3.5922689 -0.009739,2.1543148 0.003251,3.2063918 0.0413365,3.3478288 0.078749,0.292453 0.413388,0.638262 0.7043584,0.727871 0.3601541,0.110915 8.1598984,0.113657 8.5325226,0.003 l 0,0 z"
   id="path3029"
   inkscape:connector-curvature="0" /><path
   style="fill:#ffffff"
   d="M 5.3062881,9.9278664 C 5.0633291,9.825329 5.0338983,9.7057236 5.0338983,8.8208895 l 0,-0.8276692 -0.7754237,-0.00507 C 3.8319915,7.9853642 3.4279102,7.9676585 3.360516,7.9488059 3.2931219,7.9299533 3.1901558,7.8504295 3.1317025,7.7720864 3.0367468,7.6448204 3.0254237,7.5597455 3.0254237,6.9735729 c 0,-0.6490932 0.0015,-0.6575709 0.1408861,-0.7970256 l 0.1408861,-0.1409541 0.8633512,-0.016998 0.8633512,-0.016998 0,-0.8386086 0,-0.8386085 0.148631,-0.148631 0.1486311,-0.1486311 0.6688396,0 0.6688396,0 0.1486311,0.1486311 0.148631,0.148631 0,0.8386085 0,0.8386086 0.8633512,0.016998 0.8633512,0.016998 0.1408861,0.1409541 c 0.1393876,0.1394547 0.1408861,0.1479324 0.1408861,0.7970256 0,0.5861726 -0.011323,0.6712475 -0.1062788,0.7985135 -0.058453,0.078343 -0.1614194,0.1578669 -0.2288136,0.1767195 -0.067394,0.018853 -0.4714754,0.036558 -0.8979585,0.039346 l -0.7754237,0.00507 0,0.8361476 c 0,0.810315 -0.00379,0.8405555 -0.1225941,0.9788138 -0.1213429,0.1412095 -0.129257,0.1427832 -0.7754237,0.154169 -0.3590563,0.00633 -0.7018645,-0.00919 -0.7617958,-0.034484 z"
   id="path3031"
   inkscape:connector-curvature="0" /></svg>