<?xml version="1.0" encoding="UTF-8" standalone="no"?>
<!-- Generator: Adobe Illustrator 15.1.0, SVG Export Plug-In  -->

<svg
   xmlns:dc="http://purl.org/dc/elements/1.1/"
   xmlns:cc="http://creativecommons.org/ns#"
   xmlns:rdf="http://www.w3.org/1999/02/22-rdf-syntax-ns#"
   xmlns:svg="http://www.w3.org/2000/svg"
   xmlns="http://www.w3.org/2000/svg"
   xmlns:sodipodi="http://sodipodi.sourceforge.net/DTD/sodipodi-0.dtd"
   xmlns:inkscape="http://www.inkscape.org/namespaces/inkscape"
   version="1.1"
   x="0px"
   y="0px"
   width="12px"
   height="12px"
   viewBox="0 0 12 12"
   style="overflow:visible;enable-background:new 0 0 12 12;"
   xml:space="preserve"
   preserveAspectRatio="xMinYMid meet"
   id="svg2995"
   inkscape:version="0.48.5 r10040"
   sodipodi:docname="switch_minus.svg"><metadata
   id="metadata3003"><rdf:RDF><cc:Work
       rdf:about=""><dc:format>image/svg+xml</dc:format><dc:type
         rdf:resource="http://purl.org/dc/dcmitype/StillImage" /><dc:title></dc:title></cc:Work></rdf:RDF></metadata><sodipodi:namedview
   pagecolor="#ffffff"
   bordercolor="#666666"
   borderopacity="1"
   objecttolerance="10"
   gridtolerance="10"
   guidetolerance="10"
   inkscape:pageopacity="0"
   inkscape:pageshadow="2"
   inkscape:window-width="1920"
   inkscape:window-height="1058"
   id="namedview3001"
   showgrid="false"
   inkscape:zoom="72.583333"
   inkscape:cx="6"
   inkscape:cy="6"
   inkscape:window-x="1912"
   inkscape:window-y="-8"
   inkscape:window-maximized="1"
   inkscape:current-layer="svg2995" />
<defs
   id="defs2997">
</defs>
<path
   style="fill:#999999;"
   d="M11,0H1C0.5,0,0,0.5,0,1v10c0,0.5,0.5,1,1,1h10c0.5,0,1-0.5,1-1V1C12,0.5,11.5,0,11,0z M11,10  c0,0.5-0.5,1-1,1H2c-0.5,0-1-0.5-1-1V4c0-0.5,0.5-1,1-1h8c0.5,0,1,0.5,1,1V10z M9,7.5C9,7.8,8.8,8,8.5,8h-5C3.2,8,3,7.8,3,7.5v-1  C3,6.2,3.2,6,3.5,6h5C8.8,6,9,6.2,9,6.5V7.5z"
   id="path2999" />
<path
   style="fill:#ffffff"
   d="M 3.3162566,7.9605847 C 3.1832394,7.9146398 3.0704775,7.7966789 3.0315409,7.6627416 3.0122079,7.5962388 3.0097896,7.5046982 3.0132427,6.9700935 l 0.00398,-0.6160177 0.03595,-0.075775 C 3.1214149,6.1344581 3.245394,6.0441837 3.4117763,6.0171859 c 0.1211972,-0.019666 5.0552501,-0.019666 5.1764474,0 0.1663822,0.026998 0.2903615,0.1172722 0.3586047,0.2611149 l 0.03595,0.075775 0.00398,0.6160177 c 0.00345,0.5346047 0.00103,0.6261453 -0.018298,0.6926481 -0.025946,0.08925 -0.086339,0.1738543 -0.1692352,0.2370816 -0.1217201,0.092839 0.070902,0.086906 -2.8051689,0.086409 -2.487202,-4.298e-4 -2.6081421,-0.00159 -2.6777985,-0.025647 l 0,0 z"
   id="path3005"
   inkscape:connector-curvature="0" /><path
   style="fill:#ffffff"
   d="M 0.89552239,11.98632 C 0.76230497,11.968446 0.59664676,11.896984 0.45464983,11.796137 0.2853936,11.675929 0.13659768,11.480808 0.05720927,11.274959 l -0.043432,-0.112617 0,-5.1526979 0,-5.15269806 0.03197878,-0.0954662 C 0.10533463,0.58361992 0.19290504,0.44602011 0.33498299,0.30701617 0.46140357,0.18333082 0.59600089,0.10048529 0.76463835,0.04256046 0.83840406,0.01722288 0.97722579,0.01653272 6,0.01653272 c 5.022774,0 5.161596,6.9016e-4 5.235362,0.02602774 0.168637,0.05792483 0.303234,0.14077036 0.429655,0.26445571 0.142078,0.13900394 0.229648,0.27660375 0.289227,0.45446363 l 0.03198,0.0954662 0,5.15269806 0,5.1526979 -0.04343,0.112617 c -0.125268,0.324812 -0.387919,0.5755 -0.721207,0.68836 -0.07334,0.02483 -0.239835,0.02571 -5.1802522,0.0271 -2.8074627,7.93e-4 -5.12307692,-0.0011 -5.14580941,-0.0041 z M 10.184742,10.983218 c 0.305682,-0.07207 0.592773,-0.313218 0.733905,-0.616449 0.08857,-0.19029 0.0825,0.05701 0.0825,-3.3637317 0,-3.4571413 0.0072,-3.1899749 -0.09156,-3.3887059 C 10.843379,3.4811135 10.788736,3.4056971 10.682193,3.3004841 10.571611,3.191281 10.418711,3.0929497 10.281488,3.0427872 l -0.100087,-0.036587 -4.181401,0 -4.1814007,0 -0.1000873,0.036587 C 1.5812895,3.0929497 1.4283893,3.191281 1.3178066,3.3004841 1.2112644,3.4056971 1.1566214,3.4811135 1.0904084,3.6143314 c -0.0987748,0.198731 -0.0915565,-0.068435 -0.0915565,3.3887059 0,3.4403967 -0.006953,3.1747467 0.0883109,3.3740007 0.061747,0.129151 0.1111987,0.199135 0.2162889,0.306095 0.1460415,0.14864 0.3279384,0.25637 0.5056198,0.299459 0.1218087,0.02954 8.2504655,0.03015 8.3756705,6.26e-4 l 0,0 z"
   id="path3007"
   inkscape:connector-curvature="0" /></svg>